<svg width="31" height="31" fill="none" xmlns="http://www.w3.org/2000/svg"><circle cx="15.05" cy="15.88" r="15.05" fill="#F9F8F8"/><path d="M15.05 15.626c.912 0 1.787-.367 2.433-1.02a3.509 3.509 0 001.007-2.465 3.51 3.51 0 00-1.007-2.465 3.418 3.418 0 00-2.433-1.02c-.912 0-1.787.367-2.432 1.02a3.509 3.509 0 00-1.008 2.465c0 .924.363 1.81 1.008 2.464a3.418 3.418 0 002.432 1.021zm-1.228 1.307c-2.647 0-4.792 2.173-4.792 4.855 0 .447.357.809.798.809h10.444c.44 0 .798-.362.798-.809 0-2.682-2.145-4.855-4.792-4.855h-2.456z" fill="#D9D9D9"/></svg>