<svg width="19" height="15" fill="none" xmlns="http://www.w3.org/2000/svg"><path d="M4.219 3.75a2.344 2.344 0 114.687 0 2.344 2.344 0 01-4.687 0zm6.093 0a3.75 3.75 0 10-7.5 0 3.75 3.75 0 007.5 0zm-2.41 6.563a3.819 3.819 0 013.779 3.28H1.444a3.819 3.819 0 013.78-3.28H7.9zM5.223 8.905A5.223 5.223 0 000 14.13c0 .48.39.87.87.87h11.385c.48 0 .87-.39.87-.87a5.223 5.223 0 00-5.224-5.224H5.223zm9.542.235a.7.7 0 00.703.703c.39 0 .703-.314.703-.703V7.266h1.875c.39 0 .703-.314.703-.704a.701.701 0 00-.703-.703h-1.875V3.984a.701.701 0 00-.703-.703.701.701 0 00-.703.703V5.86H12.89a.701.701 0 00-.704.704c0 .39.314.703.704.703h1.875V9.14z" fill="#fff"/></svg>