<svg width="25" height="20" fill="none" xmlns="http://www.w3.org/2000/svg"><path d="M5.625 5a3.125 3.125 0 116.25 0 3.125 3.125 0 01-6.25 0zm8.125 0a5 5 0 10-10 0 5 5 0 0010 0zm-3.215 8.75a5.091 5.091 0 015.04 4.375H1.924a5.091 5.091 0 015.04-4.375h3.57zm-3.57-1.875A6.963 6.963 0 000 18.84C0 19.48.52 20 1.16 20h15.18c.64 0 1.16-.52 1.16-1.16a6.963 6.963 0 00-6.965-6.965h-3.57zm12.723.313c0 .519.418.937.937.937.52 0 .938-.418.938-.938v-2.5h2.5A.934.934 0 0025 8.75a.935.935 0 00-.938-.938h-2.5v-2.5a.935.935 0 00-.937-.937.935.935 0 00-.938.938v2.5h-2.5a.935.935 0 00-.937.937c0 .52.418.938.938.938h2.5v2.5z" fill="#333"/></svg>