<svg width="31" height="31" viewBox="0 0 31 31" fill="none" xmlns="http://www.w3.org/2000/svg">
<circle cx="15.0502" cy="15.8796" r="15.0502" fill="#F9F8F8"/>
<path d="M15.0501 15.6261C15.9625 15.6261 16.8374 15.2589 17.4826 14.6053C18.1277 13.9517 18.4901 13.0652 18.4901 12.1408C18.4901 11.2165 18.1277 10.33 17.4826 9.67635C16.8374 9.02273 15.9625 8.65553 15.0501 8.65553C14.1377 8.65553 13.2628 9.02273 12.6176 9.67635C11.9725 10.33 11.6101 11.2165 11.6101 12.1408C11.6101 13.0652 11.9725 13.9517 12.6176 14.6053C13.2628 15.2589 14.1377 15.6261 15.0501 15.6261ZM13.8219 16.9331C11.1747 16.9331 9.03003 19.106 9.03003 21.788C9.03003 22.2346 9.38747 22.5967 9.82823 22.5967H20.272C20.7127 22.5967 21.0702 22.2346 21.0702 21.788C21.0702 19.106 18.9255 16.9331 16.2783 16.9331H13.8219Z" fill="#D9D9D9"/>
</svg>
