<svg width="15" height="16" viewBox="0 0 15 16" fill="none" xmlns="http://www.w3.org/2000/svg">
<path d="M12.1881 6.09405C12.1881 7.43884 11.7516 8.68109 11.0162 9.68895L14.7253 13.401C15.0916 13.7673 15.0916 14.362 14.7253 14.7283C14.3591 15.0945 13.7643 15.0945 13.3981 14.7283L9.68895 11.0162C8.68109 11.7545 7.43884 12.1881 6.09405 12.1881C2.72767 12.1881 0 9.46042 0 6.09405C0 2.72767 2.72767 0 6.09405 0C9.46042 0 12.1881 2.72767 12.1881 6.09405ZM6.09405 10.313C6.64809 10.313 7.1967 10.2039 7.70857 9.99185C8.22044 9.77983 8.68553 9.46907 9.0773 9.0773C9.46907 8.68553 9.77983 8.22044 9.99185 7.70857C10.2039 7.1967 10.313 6.64809 10.313 6.09405C10.313 5.54001 10.2039 4.99139 9.99185 4.47952C9.77983 3.96766 9.46907 3.50256 9.0773 3.1108C8.68553 2.71903 8.22044 2.40826 7.70857 2.19624C7.1967 1.98422 6.64809 1.87509 6.09405 1.87509C5.54001 1.87509 4.99139 1.98422 4.47952 2.19624C3.96766 2.40826 3.50256 2.71903 3.1108 3.1108C2.71903 3.50256 2.40826 3.96766 2.19624 4.47952C1.98422 4.99139 1.87509 5.54001 1.87509 6.09405C1.87509 6.64809 1.98422 7.1967 2.19624 7.70857C2.40826 8.22044 2.71903 8.68553 3.1108 9.0773C3.50256 9.46907 3.96766 9.77983 4.47952 9.99185C4.99139 10.2039 5.54001 10.313 6.09405 10.313Z" fill="#333333"/>
</svg>
