<svg width="19" height="15" viewBox="0 0 19 15" fill="none" xmlns="http://www.w3.org/2000/svg">
<path d="M4.21875 3.75C4.21875 3.1284 4.46568 2.53226 4.90522 2.09272C5.34476 1.65318 5.9409 1.40625 6.5625 1.40625C7.1841 1.40625 7.78024 1.65318 8.21978 2.09272C8.65932 2.53226 8.90625 3.1284 8.90625 3.75C8.90625 4.3716 8.65932 4.96774 8.21978 5.40728C7.78024 5.84682 7.1841 6.09375 6.5625 6.09375C5.9409 6.09375 5.34476 5.84682 4.90522 5.40728C4.46568 4.96774 4.21875 4.3716 4.21875 3.75ZM10.3125 3.75C10.3125 2.75544 9.91741 1.80161 9.21415 1.09835C8.51089 0.395088 7.55706 0 6.5625 0C5.56794 0 4.61411 0.395088 3.91085 1.09835C3.20759 1.80161 2.8125 2.75544 2.8125 3.75C2.8125 4.74456 3.20759 5.69839 3.91085 6.40165C4.61411 7.10491 5.56794 7.5 6.5625 7.5C7.55706 7.5 8.51089 7.10491 9.21415 6.40165C9.91741 5.69839 10.3125 4.74456 10.3125 3.75ZM7.90137 10.3125C9.82617 10.3125 11.4199 11.7393 11.6807 13.5938H1.44434C1.70508 11.7393 3.29883 10.3125 5.22363 10.3125H7.90137ZM5.22363 8.90625C2.33789 8.90625 0 11.2441 0 14.1299C0 14.6104 0.389648 15 0.870117 15H12.2549C12.7354 15 13.125 14.6104 13.125 14.1299C13.125 11.2441 10.7871 8.90625 7.90137 8.90625H6.5625H5.22363ZM14.7656 9.14062C14.7656 9.53027 15.0791 9.84375 15.4688 9.84375C15.8584 9.84375 16.1719 9.53027 16.1719 9.14062V7.26562H18.0469C18.4365 7.26562 18.75 6.95215 18.75 6.5625C18.75 6.17285 18.4365 5.85938 18.0469 5.85938H16.1719V3.98438C16.1719 3.59473 15.8584 3.28125 15.4688 3.28125C15.0791 3.28125 14.7656 3.59473 14.7656 3.98438V5.85938H12.8906C12.501 5.85938 12.1875 6.17285 12.1875 6.5625C12.1875 6.95215 12.501 7.26562 12.8906 7.26562H14.7656V9.14062Z" fill="white"/>
</svg>
