<svg width="14" height="15" viewBox="0 0 14 15" fill="none" xmlns="http://www.w3.org/2000/svg">
<path d="M4.21875 3.75V5.625H8.90625V3.75C8.90625 2.45508 7.85742 1.40625 6.5625 1.40625C5.26758 1.40625 4.21875 2.45508 4.21875 3.75ZM2.8125 5.625V3.75C2.8125 1.67871 4.49121 0 6.5625 0C8.63379 0 10.3125 1.67871 10.3125 3.75V5.625H11.25C12.2842 5.625 13.125 6.46582 13.125 7.5V13.125C13.125 14.1592 12.2842 15 11.25 15H1.875C0.84082 15 0 14.1592 0 13.125V7.5C0 6.46582 0.84082 5.625 1.875 5.625H2.8125ZM1.40625 7.5V13.125C1.40625 13.3828 1.61719 13.5938 1.875 13.5938H11.25C11.5078 13.5938 11.7188 13.3828 11.7188 13.125V7.5C11.7188 7.24219 11.5078 7.03125 11.25 7.03125H1.875C1.61719 7.03125 1.40625 7.24219 1.40625 7.5Z" fill="white"/>
</svg>
