<svg width="25" height="20" viewBox="0 0 25 20" fill="none" xmlns="http://www.w3.org/2000/svg">
<path d="M5.625 5C5.625 4.1712 5.95424 3.37634 6.54029 2.79029C7.12634 2.20424 7.9212 1.875 8.75 1.875C9.5788 1.875 10.3737 2.20424 10.9597 2.79029C11.5458 3.37634 11.875 4.1712 11.875 5C11.875 5.8288 11.5458 6.62366 10.9597 7.20971C10.3737 7.79576 9.5788 8.125 8.75 8.125C7.9212 8.125 7.12634 7.79576 6.54029 7.20971C5.95424 6.62366 5.625 5.8288 5.625 5ZM13.75 5C13.75 3.67392 13.2232 2.40215 12.2855 1.46447C11.3479 0.526784 10.0761 0 8.75 0C7.42392 0 6.15215 0.526784 5.21447 1.46447C4.27678 2.40215 3.75 3.67392 3.75 5C3.75 6.32608 4.27678 7.59785 5.21447 8.53553C6.15215 9.47322 7.42392 10 8.75 10C10.0761 10 11.3479 9.47322 12.2855 8.53553C13.2232 7.59785 13.75 6.32608 13.75 5ZM10.5352 13.75C13.1016 13.75 15.2266 15.6523 15.5742 18.125H1.92578C2.27344 15.6523 4.39844 13.75 6.96484 13.75H10.5352ZM6.96484 11.875C3.11719 11.875 0 14.9922 0 18.8398C0 19.4805 0.519531 20 1.16016 20H16.3398C16.9805 20 17.5 19.4805 17.5 18.8398C17.5 14.9922 14.3828 11.875 10.5352 11.875H8.75H6.96484ZM19.6875 12.1875C19.6875 12.707 20.1055 13.125 20.625 13.125C21.1445 13.125 21.5625 12.707 21.5625 12.1875V9.6875H24.0625C24.582 9.6875 25 9.26953 25 8.75C25 8.23047 24.582 7.8125 24.0625 7.8125H21.5625V5.3125C21.5625 4.79297 21.1445 4.375 20.625 4.375C20.1055 4.375 19.6875 4.79297 19.6875 5.3125V7.8125H17.1875C16.668 7.8125 16.25 8.23047 16.25 8.75C16.25 9.26953 16.668 9.6875 17.1875 9.6875H19.6875V12.1875Z" fill="#333333"/>
</svg>
